<svg xmlns="http://www.w3.org/2000/svg" viewBox="0 0 32 32" width="32" height="32">
  <circle cx="16" cy="16" r="14" fill="#007AFF"/>
  <rect x="6" y="6" width="20" height="20" fill="none" stroke="white" stroke-width="1.5" rx="2"/>
  <!-- Corner markers -->
  <rect x="7" y="7" width="4" height="4" fill="white" rx="0.5"/>
  <rect x="21" y="7" width="4" height="4" fill="white" rx="0.5"/>
  <rect x="7" y="21" width="4" height="4" fill="white" rx="0.5"/>
  <!-- QR pattern -->
  <rect x="13" y="9" width="2" height="2" fill="white" rx="0.3"/>
  <rect x="17" y="9" width="2" height="2" fill="white" rx="0.3"/>
  <rect x="11" y="13" width="2" height="2" fill="white" rx="0.3"/>
  <rect x="15" y="13" width="2" height="2" fill="white" rx="0.3"/>
  <rect x="19" y="13" width="2" height="2" fill="white" rx="0.3"/>
  <rect x="13" y="17" width="2" height="2" fill="white" rx="0.3"/>
  <rect x="19" y="17" width="2" height="2" fill="white" rx="0.3"/>
  <rect x="15" y="21" width="2" height="2" fill="white" rx="0.3"/>
</svg>